<svg width="40" height="34" viewBox="0 0 40 34" fill="none" xmlns="http://www.w3.org/2000/svg">
<path d="M35.1496 0.678943C34.0683 0.662947 31.5565 1.03004 27.3626 3.83692C25.0769 3.26566 22.645 2.98377 20.2088 2.98377C17.5284 2.98377 14.8196 3.32414 12.2935 4.01711C6.27236 -0.0905477 3.61468 0.751233 3.61468 0.751233C1.87965 5.09006 2.95182 8.30241 3.2777 9.10021C1.23842 11.3011 -0.0065155 14.1116 -0.0065155 17.5561C-0.0065155 20.1565 0.289455 22.4889 1.01255 24.5165C1.05266 24.6729 1.03966 24.6381 1.10723 24.772C1.26653 25.1918 1.44366 25.5992 1.64274 25.9926C1.71096 26.1342 1.77305 26.239 1.77305 26.239C3.80575 30.0281 7.81287 32.4757 14.9425 33.2442L25.7256 33.2564C33.329 32.5024 36.9776 30.0475 38.6589 26.2329L38.7658 25.9845C38.9251 25.5992 39.0639 25.1982 39.4438 23.8486C39.8236 22.499 39.9935 20.1617 39.9935 17.5551C39.9935 13.8166 38.5894 10.8252 36.3092 8.54941C36.7077 7.26324 37.24 4.40687 35.7778 0.750191C35.7778 0.750191 35.5728 0.685198 35.1497 0.67891L35.1496 0.678943ZM26.652 14.3981C28.4077 14.3943 29.9117 14.6957 31.0408 15.8804V15.8814C32.4537 17.365 33.2805 19.1563 33.2805 21.0866C33.2805 30.0996 27.4839 30.3447 20.334 30.3447C13.183 30.3447 7.38757 29.0958 7.38757 21.0866C7.38757 19.169 8.20231 17.3885 9.59775 15.9109C11.9255 13.4483 15.8646 14.7523 20.3341 14.7523C22.6283 14.752 24.783 14.4021 26.6521 14.3981L26.652 14.3981ZM13.3339 17.0522C11.8462 17.0522 10.6401 19.0635 10.6401 21.5458C10.6401 24.0285 11.8462 26.0405 13.3339 26.0405C14.8216 26.0405 16.0277 24.0285 16.0277 21.5458C16.0277 19.0639 14.8217 17.0539 13.3339 17.0522ZM27.7871 17.0522C26.2994 17.0522 25.0933 19.0635 25.0933 21.5458C25.0933 24.0285 26.2993 26.0405 27.7871 26.0405C29.2748 26.0405 30.4809 24.0285 30.4809 21.5458C30.4809 19.0639 29.2749 17.0539 27.7871 17.0522Z" fill="#546A7B"/>
</svg>
